<svg version="1.1" xmlns="http://www.w3.org/2000/svg" viewBox="-269.2 -3014.1499999999996 7371.4 3518.35"><desc>Created with Snap</desc><defs></defs><g><g transform="matrix(18.7266,0,0,18.7266,2517.625,-2706.95)"><path d="M86 96h-76c-1.104 0-2-0.9-2-2v-54c0-1.104 0.896-2 2-2s2 0.896 2 2v52h72v-52c0-1.104 0.9-2 2-2s2 0.896 2 2v54c0 1.1-0.9 2-2 2z" fill="#143d59" style=""></path><path d="M87 42c-3.084 0-5.632-1.396-7.22-3.728-1.836 2.272-4.64 3.728-7.78 3.728-3.264 0-6.172-1.576-8-4.004-1.828 2.432-4.736 4.004-8 4.004s-6.172-1.576-8-4.004c-1.828 2.432-4.732 4.004-8 4.004s-6.172-1.576-8-4.004c-1.828 2.432-4.732 4.004-8 4.004s-6.172-1.576-8-4.004c-1.828 2.432-4.732 4.004-8 4.004-4.488 0-8-4.392-8-10v-2c0-0.228 0.040-0.452 0.112-0.664l9.876-28c0.284-0.8 1.040-1.336 1.888-1.336h72.124c0.844 0 1.6 0.532 1.884 1.328l10 28c0.080 0.216 0.116 0.444 0.116 0.672v2c0 5.888-3.7 10-9 10zM82 32c0 2.768 1.308 6 5 6s5-3.232 5-6v-1.656l-9.416-26.344h-69.296l-9.292 26.344v1.656c0 3.252 1.832 6 4 6 3.308 0 6-2.692 6-6 0-1.104 0.896-2 2-2s2 0.896 2 2c0 3.308 2.692 6 6 6s6-2.692 6-6c0-1.104 0.896-2 2-2s2 0.896 2 2c0 3.308 2.692 6 6 6s6-2.692 6-6c0-1.104 0.896-2 2-2s2 0.896 2 2c0 3.308 2.692 6 6 6s6-2.692 6-6c0-1.104 0.896-2 2-2s2 0.896 2 2c0 3.308 2.692 6 6 6s6-2.692 6-6c0-1.104 0.896-2 2-2s2.004 0.896 2.004 2z" fill="#143d59" style=""></path><path d="M73.332 86.332c-1.104 0-2-0.896-2-2 0-6.864-10.684-12.668-23.332-12.668s-23.332 5.804-23.332 12.668c0 1.104-0.896 2-2 2s-2-0.896-2-2c0-9.344 12.004-16.668 27.332-16.668s27.332 7.324 27.332 16.668c0 1.104-0.896 2-2 2z" fill="#143d59" style=""></path><path d="M46 70c-1.104 0-2-0.9-2-2v-4.676c-1.8-1.128-5.084-3.64-5.084-6.968 0-4.604 4.524-7.816 8.584-7.816 4.18 0 7.332 3.392 7.332 7.884 0 1.1-0.896 2-2 2s-2-0.9-2-2c0-1.868-1.044-3.884-3.332-3.884-2.076 0-4.584 1.704-4.584 3.816 0 1.284 2.32 3.168 3.996 4.028 0.668 0.344 1.088 1.028 1.088 1.78v5.828c0 1.108-0.896 2.008-2 2.008z" fill="#143d59" style=""></path><desc>Created with Snap</desc><defs></defs></g><g><g transform="matrix(1,0,0,-1,0,0)"><path d="M450 70Q466 70 476 59Q486 49 486 34Q486 20 476 10Q466 0 450 0L86 0Q66 0 52 14Q38 28 38 47Q38 66 48 78L390 501L75 501Q61 501 50 511Q40 521 40 536Q40 550 50 561Q61 572 75 572L431 572Q455 572 468 557Q481 542 481 522Q481 503 468 488L130 70L450 70ZM637 182Q644 127 679 94Q715 62 777 62Q840 62 884 82Q898 89 909 89Q920 90 929 81Q939 72 939 61Q939 39 921 30Q904 21 890 14Q876 7 860 2Q823 -8 774 -8Q673 -8 617 48Q562 105 562 209Q562 299 609 359Q662 426 758 426Q850 426 903 364Q953 306 953 219Q953 204 942 193Q932 182 916 182L637 182ZM758 363Q685 363 652 298Q640 275 637 243L879 243Q876 301 836 335Q804 363 758 363ZM1262 357Q1190 357 1127 278L1127 33Q1127 18 1116 7Q1105 -4 1090 -4Q1075 -4 1064 7Q1053 18 1053 33L1053 384Q1053 400 1063 411Q1074 422 1090 422Q1105 422 1116 411Q1127 401 1127 384L1127 350Q1160 384 1184 399Q1230 426 1272 426Q1315 426 1342 413Q1369 401 1388 378Q1426 333 1426 266L1426 33Q1426 18 1415 7Q1404 -4 1389 -4Q1374 -4 1363 7Q1352 18 1352 33L1352 258Q1352 304 1331 330Q1310 357 1262 357ZM1625 385L1625 364Q1686 426 1765 426Q1845 426 1901 370Q1963 308 1964 209Q1964 109 1901 47Q1843 -9 1764 -9Q1686 -8 1625 54L1625 -155Q1625 -171 1614 -182Q1604 -193 1588 -193Q1572 -193 1561 -182Q1551 -171 1551 -155L1551 385Q1551 400 1561 411Q1572 422 1588 422Q1604 422 1614 411Q1625 401 1625 385ZM1625 295L1625 123Q1681 61 1755 62Q1849 62 1880 145Q1890 173 1889 209Q1889 279 1852 319Q1816 356 1755 356Q1681 356 1625 295ZM2251 426Q2346 426 2404 366Q2462 305 2460 209Q2460 112 2404 52Q2346 -8 2251 -8Q2155 -8 2099 52Q2041 112 2041 209Q2041 307 2099 366Q2155 426 2251 426ZM2159 93Q2179 76 2203 68Q2228 60 2251 60Q2274 60 2298 68Q2322 76 2342 94Q2386 134 2386 210Q2386 284 2342 325Q2305 359 2251 358Q2162 358 2128 278Q2116 249 2116 209Q2116 169 2128 140Q2140 111 2159 93ZM2570 565Q2570 581 2581 591Q2592 602 2608 602Q2624 602 2634 591Q2645 581 2645 565L2645 33Q2645 18 2634 7Q2624 -4 2608 -4Q2592 -4 2581 7Q2570 18 2570 33L2570 565ZM2783 384Q2783 401 2794 411Q2805 422 2821 422Q2837 422 2847 411Q2857 401 2857 384L2857 33Q2857 18 2847 7Q2837 -4 2821 -4Q2805 -4 2794 7Q2783 18 2783 33L2783 384ZM2865 548L2865 545Q2865 527 2853 515Q2841 503 2823 503L2818 503Q2800 503 2788 515Q2777 527 2777 545L2777 548Q2777 566 2789 578Q2801 590 2818 590L2823 590Q2841 590 2853 578Q2865 566 2865 548ZM3064 385L3064 364Q3125 426 3204 426Q3284 426 3340 370Q3402 308 3403 209Q3403 109 3340 47Q3282 -9 3203 -9Q3125 -8 3064 54L3064 -155Q3064 -171 3053 -182Q3043 -193 3027 -193Q3011 -193 3000 -182Q2990 -171 2990 -155L2990 385Q2990 400 3000 411Q3011 422 3027 422Q3043 422 3053 411Q3064 401 3064 385ZM3064 295L3064 123Q3120 61 3194 62Q3288 62 3319 145Q3329 173 3328 209Q3328 279 3291 319Q3255 356 3194 356Q3120 356 3064 295ZM3935 62Q3981 62 4022 84Q4036 92 4048 92Q4060 93 4069 82Q4078 71 4078 56Q4078 42 4059 30Q4001 -8 3929 -8Q3838 -8 3775 49Q3709 110 3710 209Q3710 308 3775 369Q3837 427 3929 426Q3978 426 4009 413Q4041 401 4059 388Q4078 376 4078 361Q4078 346 4069 336Q4060 326 4051 326Q4037 326 4022 334Q3980 357 3935 356Q3863 356 3823 315Q3784 275 3784 209Q3784 143 3823 102Q3863 62 3935 62ZM4181 565Q4181 581 4192 591Q4203 602 4219 602Q4235 602 4245 591Q4256 581 4256 565L4256 33Q4256 18 4245 7Q4235 -4 4219 -4Q4203 -4 4192 7Q4181 18 4181 33L4181 565ZM4575 426Q4670 426 4728 366Q4786 305 4784 209Q4784 112 4728 52Q4670 -8 4575 -8Q4479 -8 4423 52Q4365 112 4365 209Q4365 307 4423 366Q4479 426 4575 426ZM4483 93Q4503 76 4527 68Q4552 60 4575 60Q4598 60 4622 68Q4646 76 4666 94Q4710 134 4710 210Q4710 284 4666 325Q4629 359 4575 358Q4486 358 4452 278Q4440 249 4440 209Q4440 169 4452 140Q4464 111 4483 93ZM5040 58Q5062 58 5071 61Q5081 65 5092 65Q5103 65 5112 56Q5121 48 5121 31Q5121 15 5105 8Q5070 -8 5045 -8Q5020 -8 4999 -6Q4979 -3 4960 8Q4915 34 4915 100L4915 354L4857 354Q4842 354 4841 370Q4841 377 4849 383L4960 492Q4967 499 4974 499Q4981 500 4985 495Q4989 490 4989 483L4989 418L5082 418Q5096 418 5105 409Q5114 400 5114 386Q5114 372 5105 363Q5096 354 5082 354L4989 354L4989 106Q4989 75 5008 64Q5018 58 5040 58ZM5411 357Q5339 357 5276 278L5276 33Q5276 18 5265 7Q5254 -4 5239 -4Q5224 -4 5213 7Q5202 18 5202 33L5202 565Q5202 581 5212 591Q5223 602 5239 602Q5254 602 5265 591Q5276 581 5276 565L5276 350Q5309 384 5333 399Q5379 426 5421 426Q5464 426 5491 413Q5518 401 5537 378Q5575 333 5575 266L5575 33Q5575 18 5564 7Q5553 -4 5538 -4Q5523 -4 5512 7Q5501 18 5501 33L5501 258Q5501 304 5480 330Q5459 357 5411 357ZM5703 384Q5703 401 5714 411Q5725 422 5741 422Q5757 422 5767 411Q5777 401 5777 384L5777 33Q5777 18 5767 7Q5757 -4 5741 -4Q5725 -4 5714 7Q5703 18 5703 33L5703 384ZM5785 548L5785 545Q5785 527 5773 515Q5761 503 5743 503L5738 503Q5720 503 5708 515Q5697 527 5697 545L5697 548Q5697 566 5709 578Q5721 590 5738 590L5743 590Q5761 590 5773 578Q5785 566 5785 548ZM6119 357Q6047 357 5984 278L5984 33Q5984 18 5973 7Q5962 -4 5947 -4Q5932 -4 5921 7Q5910 18 5910 33L5910 384Q5910 400 5920 411Q5931 422 5947 422Q5962 422 5973 411Q5984 401 5984 384L5984 350Q6017 384 6041 399Q6087 426 6129 426Q6172 426 6199 413Q6226 401 6245 378Q6283 333 6283 266L6283 33Q6283 18 6272 7Q6261 -4 6246 -4Q6231 -4 6220 7Q6209 18 6209 33L6209 258Q6209 304 6188 330Q6167 357 6119 357ZM6721 364L6721 384Q6721 399 6731 410Q6742 422 6757 422Q6772 422 6783 411Q6795 400 6795 384L6795 18Q6795 -86 6745 -142Q6695 -197 6603 -197Q6505 -197 6427 -154Q6413 -145 6413 -129Q6413 -113 6422 -103Q6432 -92 6442 -92Q6452 -92 6460 -95Q6522 -126 6595 -126Q6721 -126 6721 7L6721 62Q6663 0 6581 0Q6503 0 6447 53Q6382 113 6382 213Q6382 314 6447 374Q6503 427 6583 426Q6663 426 6721 364ZM6721 129L6721 298Q6698 322 6668 340Q6639 358 6603 358Q6567 358 6541 349Q6516 340 6497 322Q6457 284 6457 213Q6457 107 6541 77Q6567 68 6603 68Q6663 68 6721 129Z" fill="#143d59" style=""></path></g></g></g></svg>